Results
version=1
nRows=14
nColumns=24
inDegrees=yes

Units are S.I. units (second, meters, Newtons, ...)
Angles are in degrees.

endheader
time	pelvis_tilt	pelvis_list	pelvis_rotation	pelvis_tx	pelvis_ty	pelvis_tz	hip_flexion_r	hip_adduction_r	hip_rotation_r	knee_angle_r	ankle_angle_r	subtalar_angle_r	mtp_angle_r	hip_flexion_l	hip_adduction_l	hip_rotation_l	knee_angle_l	ankle_angle_l	subtalar_angle_l	mtp_angle_l	lumbar_extension	lumbar_bending	lumbar_rotation
      0.00000000	     -3.81445255	     -3.07111314	      2.86431507	      0.00000000	      0.82000000	      0.00000000	     22.51369222	     17.16740268	     18.64408150	    -67.38843796	     31.78228590	      0.00000000	      0.00000000	     58.68281265	     -4.01886863	     12.66839657	    -55.45740268	      9.81183699	      0.00000000	      0.00000000	    -16.18554745	      3.07111314	     -2.86431507
      0.00100000	     -3.81229500	     -3.07077177	      2.86577302	     -0.00000051	      0.82000020	     -0.00000237	     22.51188926	     17.16616152	     18.64189557	    -67.38763272	     31.74026417	     -0.00645778	      0.14667893	     58.68019734	     -4.01727480	     12.66974079	    -55.45558033	      9.78461375	     -0.00560290	      0.09692925	    -16.18815382	      3.07119487	     -2.86563806
      0.00200000	     -3.80589326	     -3.06975079	      2.87009942	     -0.00000199	      0.82000064	     -0.00000942	     22.50652659	     17.16244677	     18.63540305	    -67.38518745	     31.61588937	     -0.02522037	      0.58035452	     58.67241422	     -4.01254363	     12.67374373	    -55.45013661	      9.70413234	     -0.02188946	      0.38350527	    -16.19588439	      3.07143058	     -2.86956404
      0.00323210	     -3.79245929	     -3.06756479	      2.87917877	     -0.00000502	      0.82000091	     -0.00002427	     22.49520233	     17.15449195	     18.62175652	    -67.37978763	     31.35681105	     -0.06251300	      1.48157691	     58.65596690	     -4.00260453	     12.68220771	    -55.43854888	      9.53701119	     -0.05431692	      0.97873714	    -16.21209200	      3.07188745	     -2.87780510
      0.00407237	     -3.78003179	     -3.06548705	      2.88757588	     -0.00000770	      0.82000039	     -0.00003810	     22.48463409	     17.14693812	     18.60911692	    -67.37447425	     31.11986233	     -0.09431477	      2.30339903	     58.64061147	     -3.99339814	     12.69010970	    -55.42764696	      9.38492099	     -0.08205649	      1.52073509	    -16.22706653	      3.07226073	     -2.88543057
      0.00456098	     -3.77167565	     -3.06405959	      2.89321943	     -0.00000943	      0.81999964	     -0.00004745	     22.47747661	     17.14175412	     18.60061359	    -67.37073317	     30.96210661	     -0.11418796	      2.84933094	     58.63021007	     -3.98720302	     12.69546072	    -55.42022463	      9.28416488	     -0.09941879	      1.88003100	    -16.23712484	      3.07248426	     -2.89055776
      0.00504959	     -3.76253768	     -3.06247176	      2.89938725	     -0.00001127	      0.81999844	     -0.00005770	     22.46960338	     17.13599209	     18.59131021	    -67.36649055	     30.79096480	     -0.13458394	      3.44053161	     58.61876506	     -3.98042649	     12.70134715	    -55.41202726	      9.17545035	     -0.11717686	      2.26798290	    -16.24811469	      3.07270422	     -2.89616305
      0.00553820	     -3.75265833	     -3.06072615	      2.90604965	     -0.00001318	      0.81999672	     -0.00006883	     22.46104102	     17.12965981	     18.58124313	    -67.36172991	     30.60734761	     -0.15521358	      4.07365581	     58.60630950	     -3.97310173	     12.70775262	    -55.40307324	      9.05968389	     -0.13490739	      2.68148742	    -16.25998521	      3.07291540	     -2.90221926
      0.00611036	     -3.74020251	     -3.05848600	      2.91444015	     -0.00001549	      0.81999392	     -0.00008291	     22.45017835	     17.12153265	     18.56852995	    -67.35547713	     30.37756559	     -0.17934882	      4.86432684	     58.59048613	     -3.96387247	     12.71589095	    -55.39165091	      8.91632417	     -0.15510293	      3.19422203	    -16.27493590	      3.07314554	     -2.90984751
      0.00668253	     -3.72685403	     -3.05603980	      2.92342173	     -0.00001785	      0.81999013	     -0.00009806	     22.43846419	     17.11265235	     18.55486881	    -67.34847433	     30.13296822	     -0.20313396	      5.70407341	     58.57338413	     -3.95398843	     12.72469016	    -55.37924412	      8.76574652	     -0.17418566	      3.73371712	    -16.29094003	      3.07335094	     -2.91801392
      0.00725469	     -3.71268077	     -3.05339348	      2.93294943	     -0.00002022	      0.81998523	     -0.00011421	     22.42595587	     17.10303500	     18.54030872	    -67.34070608	     29.87457972	     -0.22626005	      6.58911671	     58.55506546	     -3.94349811	     12.73412089	    -55.36587918	      8.60907600	     -0.19172521	      4.29624513	    -16.30791429	      3.07352559	     -2.92667725
      0.00833196	     -3.68398971	     -3.04788978	      2.95221698	     -0.00002469	      0.81997249	     -0.00014716	     22.40045640	     17.08298582	     18.51061811	    -67.32396105	     29.35381059	     -0.26703261	      8.36656708	     58.51748984	     -3.92226629	     12.75348830	    -55.33820763	      8.30124535	     -0.21920665	      5.40586579	    -16.34222194	      3.07375211	     -2.94419640
      0.00907228	     -3.66293493	     -3.04373013	      2.96634591	     -0.00002771	      0.81996072	     -0.00017153	     22.38162081	     17.06778359	     18.48861394	    -67.31082180	     28.97232874	     -0.29220343	      9.66296461	     58.48950154	     -3.90668106	     12.76793714	    -55.31736755	      8.08277692	     -0.23287428	      6.19762543	    -16.36735670	      3.07381603	     -2.95704203
      0.00981259	     -3.64093962	     -3.03927707	      2.98110244	     -0.00003063	      0.81994618	     -0.00019719	     22.36185260	     17.05145883	     18.46540584	    -67.29633478	     28.57356810	     -0.31442217	     11.01224016	     58.45989201	     -3.89038798	     12.78324631	    -55.29510799	      7.86092939	     -0.24148124	      7.00601354	    -16.39357900	      3.07379353	     -2.97045700
